<svg width="196" height="40" viewBox="0 0 196 40" fill="none" xmlns="http://www.w3.org/2000/svg">
<path d="M23.9302 14.422H29.7255L32.3641 9.16372H26.4939L23.9302 14.422Z" fill="#FF0041"/>
<path d="M7.27814 24.1383V22.3103H26.4269L29.0654 17.0511H7.27814V15.2502C7.27814 14.793 7.65147 14.421 8.11036 14.421H21.0252L23.588 9.16372H8.10939C4.74067 9.16372 2 11.8946 2 15.2512V24.1383C2 27.495 4.74067 30.2258 8.10939 30.2258H29.7246L32.3632 24.9666H8.10939C7.6505 24.9666 7.27717 24.5946 7.27717 24.1383H7.27814Z" fill="white"/>
<path d="M115.248 20.8853C115.228 20.8301 115.204 20.7749 115.183 20.7206C115.181 20.7148 115.178 20.709 115.176 20.7032C114.974 20.2053 114.703 19.7355 114.373 19.3053C113.133 17.6391 111.144 16.56 108.902 16.56H94.578C94.578 16.56 94.5751 16.56 94.5731 16.56C94.5712 16.56 94.5702 16.56 94.5683 16.56C93.9101 16.56 93.3763 16.0281 93.3763 15.3723C93.3763 14.7165 93.9101 14.1846 94.5683 14.1846C94.5712 14.1846 94.5741 14.1846 94.577 14.1846C94.5799 14.1846 94.5829 14.1846 94.5858 14.1846H110.917L113.404 9.08234H94.5274C90.9983 9.08234 88.1108 11.9595 88.1108 15.476V15.5302C88.1108 18.914 90.8641 21.6574 94.2601 21.6574L97.1485 21.6768H108.108C109.045 21.6768 109.803 22.4324 109.803 23.3653C109.803 24.2982 109.045 25.0538 108.108 25.0538H90.626L88.1507 30.1319H108.902C112.663 30.1319 115.712 27.0939 115.712 23.3459C115.712 22.4779 115.547 21.6497 115.249 20.8873L115.248 20.8853Z" fill="white"/>
<path d="M68.4799 16.9707L65.8403 22.2299H83.0193L85.6589 16.9707H68.4799Z" fill="white"/>
<path d="M151.633 14.3396H166.532L169.086 9.08041H151.633C148.263 9.08041 145.523 11.8103 145.523 15.166V30.0069H150.754L150.797 22.0953H162.907L165.394 16.993H151.195L150.802 16.994V15.1669C150.802 14.7107 151.173 14.3406 151.634 14.3406L151.633 14.3396Z" fill="white"/>
<path fill-rule="evenodd" clip-rule="evenodd" d="M142.134 14.3261C142.091 13.0377 141.585 11.8587 140.773 10.9384C140.772 10.9375 140.771 10.9355 140.769 10.9346C140.712 10.8716 140.655 10.8086 140.597 10.7486C140.593 10.7447 140.588 10.7398 140.584 10.736C140.528 10.6778 140.47 10.6217 140.412 10.5664C140.404 10.5587 140.396 10.5519 140.389 10.5442C140.333 10.4918 140.277 10.4415 140.219 10.3921C140.207 10.3824 140.195 10.3727 140.183 10.362C140.128 10.3155 140.073 10.27 140.016 10.2264C140 10.2138 139.983 10.2012 139.966 10.1886C139.913 10.1479 139.86 10.1082 139.806 10.0704C139.784 10.0549 139.762 10.0394 139.739 10.0239C139.69 9.98907 139.639 9.95517 139.589 9.92223C139.56 9.90382 139.531 9.88639 139.503 9.86895C139.456 9.83989 139.411 9.81179 139.363 9.7837C139.328 9.76336 139.293 9.74495 139.258 9.72461C139.215 9.70136 139.173 9.67714 139.13 9.65486C139.088 9.63355 139.045 9.61321 139.003 9.59189C138.965 9.57349 138.928 9.55411 138.89 9.53668C138.84 9.51343 138.789 9.49211 138.74 9.4708C138.708 9.45724 138.676 9.44271 138.643 9.42915C138.584 9.4059 138.526 9.38362 138.467 9.36134C138.44 9.35165 138.415 9.34099 138.389 9.33227C138.322 9.30902 138.255 9.28674 138.187 9.26543C138.167 9.25962 138.148 9.25284 138.128 9.24703C138.053 9.22475 137.978 9.20343 137.901 9.18406C137.888 9.18115 137.875 9.17631 137.862 9.1734C137.776 9.15209 137.69 9.13272 137.603 9.11528C137.599 9.11528 137.595 9.11334 137.591 9.11237C137.223 9.03875 136.842 9 136.453 9H123.701C120.577 9 118.017 11.4761 118.017 14.5033V25.0092H118.022C118.065 26.2976 118.57 27.4775 119.383 28.3969C119.384 28.3978 119.385 28.3998 119.387 28.4007C119.443 28.4637 119.501 28.5267 119.559 28.5867C119.563 28.5906 119.568 28.5954 119.572 28.5993C119.628 28.6574 119.685 28.7136 119.744 28.7689C119.752 28.7766 119.759 28.7834 119.767 28.7911C119.822 28.8434 119.879 28.8938 119.937 28.9432C119.949 28.9529 119.961 28.9626 119.973 28.9733C120.028 29.0198 120.083 29.0653 120.139 29.1089C120.156 29.1215 120.172 29.1341 120.19 29.1467C120.242 29.1873 120.296 29.2271 120.349 29.2648C120.372 29.2803 120.394 29.2958 120.417 29.3113C120.466 29.3462 120.517 29.3801 120.567 29.4131C120.595 29.4315 120.625 29.4489 120.653 29.4663C120.699 29.4954 120.745 29.5235 120.793 29.5516C120.828 29.5719 120.863 29.5903 120.898 29.6107C120.941 29.6339 120.982 29.6581 121.026 29.6804C121.068 29.7017 121.111 29.7221 121.152 29.7434C121.19 29.7618 121.227 29.7812 121.266 29.7986C121.316 29.8219 121.366 29.8432 121.416 29.8645C121.448 29.878 121.48 29.8926 121.513 29.9061C121.572 29.9294 121.63 29.9517 121.689 29.9739C121.715 29.9836 121.741 29.9943 121.767 30.003C121.834 30.0263 121.901 30.0485 121.969 30.0699C121.989 30.0757 122.008 30.0824 122.027 30.0883C122.102 30.1105 122.178 30.1319 122.255 30.1512C122.268 30.1541 122.281 30.159 122.294 30.1619C122.379 30.1832 122.466 30.2026 122.552 30.22C122.556 30.22 122.561 30.2219 122.565 30.2229C122.933 30.2965 123.314 30.3353 123.703 30.3353H136.455C139.579 30.3353 142.139 27.8592 142.139 24.8319V14.3261H142.134ZM124.165 25.76C123.689 25.4374 123.374 24.893 123.374 24.2788V15.0604C123.374 14.0752 124.183 13.2702 125.171 13.2702H134.987C135.358 13.2702 135.704 13.3835 135.991 13.5772C136.468 13.8998 136.783 14.4443 136.783 15.0584V24.2769C136.783 25.2621 135.974 26.0671 134.986 26.0671H125.17C124.798 26.0671 124.453 25.9537 124.165 25.76Z" fill="white"/>
<path d="M186.107 9.12302H171.454L168.9 14.3823H178.065V30.3159H178.139V30.3363H183.269V30.3159H183.296L183.338 20.2402L183.342 14.3823H183.345H192.908L193 9.12302H186.107Z" fill="white"/>
<path d="M56.412 9.18115V22.8334L41.6227 9.18115H36.5254V30.2074H41.6227V16.8961L56.412 30.2074H61.5084V9.18115H56.412Z" fill="white"/>
</svg>
